HIERARCHY
ROOT Hips
{
	OFFSET 0.000000 89.005402 0.000000
	CHANNELS 6 Xposition Yposition Zposition Xrotation Yrotation Zrotation
	JOINT Spine
	{
		OFFSET 0.116900 10.681000 0.373400
		CHANNELS 3 Xrotation Yrotation Zrotation
		JOINT Spine1
		{
			OFFSET 0.000000 13.840401 0.053500
			CHANNELS 3 Xrotation Yrotation Zrotation
			JOINT Spine2
			{
				OFFSET 0.000000 14.712700 -0.366200
				CHANNELS 3 Xrotation Yrotation Zrotation
				JOINT Neck
				{
					OFFSET 0.000000 35.415497 -3.314200
					CHANNELS 3 Xrotation Yrotation Zrotation
					JOINT Head
					{
						OFFSET 0.000000 16.899200 1.218300
						CHANNELS 3 Xrotation Yrotation Zrotation
						JOINT HeadTop_End
						{
							OFFSET 0.000000 22.206207 2.192500
							CHANNELS 3 Xrotation Yrotation Zrotation
							End Site
							{
								OFFSET 0.000000 22.314178 0.000000
							}
						}
					}
				}
				JOINT LeftShoulder
				{
					OFFSET 12.896400 26.716293 -4.548400
					CHANNELS 3 Xrotation Yrotation Zrotation
					JOINT LeftArm
					{
						OFFSET 19.027000 -4.857010 -1.718400
						CHANNELS 3 Xrotation Yrotation Zrotation
						JOINT LeftForeArm
						{
							OFFSET 24.179897 0.000000 0.000000
							CHANNELS 3 Xrotation Yrotation Zrotation
							JOINT LeftHand
							{
								OFFSET 27.156403 0.000000 0.000000
								CHANNELS 3 Xrotation Yrotation Zrotation
								JOINT LeftHandIndex1
								{
									OFFSET 16.441200 0.000000 0.000000
									CHANNELS 3 Xrotation Yrotation Zrotation
									JOINT LeftHandIndex2
									{
										OFFSET 4.821899 0.000000 0.000000
										CHANNELS 3 Xrotation Yrotation Zrotation
										JOINT LeftHandIndex3
										{
											OFFSET 6.386497 0.000000 0.000000
											CHANNELS 3 Xrotation Yrotation Zrotation
											JOINT LeftHandIndex4
											{
												OFFSET 5.188988 0.000000 0.000000
												CHANNELS 3 Xrotation Yrotation Zrotation
												End Site
												{
													OFFSET -0.178703 5.185913 0.000177
												}
											}
										}
									}
								}
								JOINT LeftHandThumb1
								{
									OFFSET 6.534897 -5.032593 5.900300
									CHANNELS 3 Xrotation Yrotation Zrotation
									JOINT LeftHandThumb2
									{
										OFFSET 3.818176 -2.204422 2.204423
										CHANNELS 3 Xrotation Yrotation Zrotation
										JOINT LeftHandThumb3
										{
											OFFSET 3.252098 -1.877594 1.877601
											CHANNELS 3 Xrotation Yrotation Zrotation
											JOINT LeftHandThumb4
											{
												OFFSET 5.251778 -3.032120 3.032117
												CHANNELS 3 Xrotation Yrotation Zrotation
												End Site
												{
													OFFSET 0.000023 6.780014 0.000000
												}
											}
										}
									}
								}
							}
						}
					}
				}
				JOINT RightShoulder
				{
					OFFSET -12.896300 26.716293 -4.548400
					CHANNELS 3 Xrotation Yrotation Zrotation
					JOINT RightArm
					{
						OFFSET -19.027000 -4.857010 -1.718400
						CHANNELS 3 Xrotation Yrotation Zrotation
						JOINT RightForeArm
						{
							OFFSET -24.179897 0.000000 0.000000
							CHANNELS 3 Xrotation Yrotation Zrotation
							JOINT RightHand
							{
								OFFSET -27.156403 0.000000 0.000000
								CHANNELS 3 Xrotation Yrotation Zrotation
								JOINT RightHandThumb1
								{
									OFFSET -6.591202 -4.852203 5.988100
									CHANNELS 3 Xrotation Yrotation Zrotation
									JOINT RightHandThumb2
									{
										OFFSET -3.818176 -2.204422 2.204423
										CHANNELS 3 Xrotation Yrotation Zrotation
										JOINT RightHandThumb3
										{
											OFFSET -3.252098 -1.877594 1.877601
											CHANNELS 3 Xrotation Yrotation Zrotation
											JOINT RightHandThumb4
											{
												OFFSET -5.251778 -3.032120 3.032117
												CHANNELS 3 Xrotation Yrotation Zrotation
												End Site
												{
													OFFSET -0.000023 6.780014 0.000000
												}
											}
										}
									}
								}
								JOINT RightHandIndex1
								{
									OFFSET -16.029404 0.000000 0.000000
									CHANNELS 3 Xrotation Yrotation Zrotation
									JOINT RightHandIndex2
									{
										OFFSET -5.213303 0.000000 0.000000
										CHANNELS 3 Xrotation Yrotation Zrotation
										JOINT RightHandIndex3
										{
											OFFSET -6.386528 0.000000 0.000000
											CHANNELS 3 Xrotation Yrotation Zrotation
											JOINT RightHandIndex4
											{
												OFFSET -5.189026 0.000000 0.000000
												CHANNELS 3 Xrotation Yrotation Zrotation
												End Site
												{
													OFFSET 0.236702 5.183624 0.001972
												}
											}
										}
									}
								}
							}
						}
					}
				}
			}
		}
	}
	JOINT LeftUpLeg
	{
		OFFSET 14.073000 -7.904099 -1.463000
		CHANNELS 3 Xrotation Yrotation Zrotation
		JOINT LeftLeg
		{
			OFFSET -0.109806 -34.073280 4.093200
			CHANNELS 3 Xrotation Yrotation Zrotation
			JOINT LeftFoot
			{
				OFFSET 0.109806 -29.899420 -6.319000
				CHANNELS 3 Xrotation Yrotation Zrotation
				JOINT LeftToeBase
				{
					OFFSET 1.551100 -14.988700 20.535801
					CHANNELS 3 Xrotation Yrotation Zrotation
					JOINT LeftToe_End
					{
						OFFSET 0.221200 0.570800 13.248301
						CHANNELS 3 Xrotation Yrotation Zrotation
						End Site
						{
							OFFSET 0.000000 13.262435 0.000000
						}
					}
				}
			}
		}
	}
	JOINT RightUpLeg
	{
		OFFSET -13.839300 -7.904099 -1.463000
		CHANNELS 3 Xrotation Yrotation Zrotation
		JOINT RightLeg
		{
			OFFSET 0.109694 -34.073219 4.093300
			CHANNELS 3 Xrotation Yrotation Zrotation
			JOINT RightFoot
			{
				OFFSET -0.109694 -29.899384 -6.319200
				CHANNELS 3 Xrotation Yrotation Zrotation
				JOINT RightToeBase
				{
					OFFSET -1.551100 -14.988700 20.535801
					CHANNELS 3 Xrotation Yrotation Zrotation
					JOINT RightToe_End
					{
						OFFSET -0.221200 0.570900 13.248299
						CHANNELS 3 Xrotation Yrotation Zrotation
						End Site
						{
							OFFSET 0.000000 13.262440 0.000000
						}
					}
				}
			}
		}
	}
}
MOTION
Frames: 6
Frame Time: 0.033333
-27.093782 53.495667 22.684774 9.556900 -1.449112 0.927050 25.773791 2.025298 3.764019 1.522398 0.335931 -0.490891 1.530524 0.268985 -0.521238 1.971595 -0.264526 2.139157 -20.930377 9.935518 -20.095979 -0.000001 0.000000 0.000001 0.523594 -10.451072 -12.149368 -12.589350 26.781069 -34.956000 0.001804 -92.557540 0.001833 4.670281 -7.910635 41.976925 1.766213 4.913061 -29.798322 1.969534 4.825313 -44.387770 0.010815 0.386609 -3.205188 0.000000 0.000003 -0.000001 18.222197 22.735021 -5.208401 -0.809103 8.490817 9.364888 0.290184 -0.346244 -0.385766 0.000000 0.000002 0.000000 -0.302962 -3.674868 -4.558847 -30.487260 60.291910 51.503806 -0.000027 111.346133 0.000038 54.716813 -37.363160 5.109899 1.640785 -3.850509 -6.116292 8.686936 -18.688422 -1.178184 17.549259 -52.854548 -7.153306 -0.000001 -0.000001 0.000002 2.342397 -5.815896 30.995381 3.892997 -6.243428 63.858806 0.104544 1.203658 -9.927848 -0.000001 -0.000000 0.000001 -93.771831 -4.616624 10.747431 79.580645 -3.608661 0.980896 4.838312 0.443797 -7.951463 -3.697993 0.000002 -0.000000 0.000000 0.000000 0.000000 -94.465778 3.843330 -14.327601 85.367140 0.402856 0.990316 -0.166190 -0.465242 4.118584 -1.898136 0.000000 0.000001 -0.000000 0.000002 0.000000 
-27.088989 53.494934 22.685385 9.547168 -1.434727 0.939353 25.765871 2.020714 3.768661 1.525696 0.334317 -0.497111 1.533786 0.266836 -0.527251 1.953428 -0.265550 2.151196 -20.864194 9.922186 -20.097832 -0.000001 0.000000 0.000000 0.523399 -10.444782 -12.147201 -12.577191 26.738775 -34.952916 0.000111 -92.541051 0.000120 4.667763 -7.901197 41.989387 1.766200 4.913043 -29.798322 1.969547 4.825309 -44.387764 0.010814 0.386610 -3.205188 0.000001 -0.000003 0.000002 18.222195 22.735017 -5.208401 -0.809102 8.490816 9.364887 0.290181 -0.346245 -0.385767 -0.000001 0.000000 0.000000 -0.300876 -3.675486 -4.538485 -30.468132 60.286610 51.481362 0.000045 111.335963 -0.000051 54.710297 -37.353311 5.112672 1.640785 -3.850510 -6.116292 8.686937 -18.688422 -1.178184 17.549259 -52.854551 -7.153303 -0.000001 0.000000 0.000002 2.342397 -5.815896 30.995388 3.892999 -6.243427 63.858813 0.104544 1.203658 -9.927851 -0.000001 0.000000 0.000001 -93.760855 -4.605504 10.725585 79.575030 -3.604834 0.981834 4.845077 0.442810 -7.962142 -3.701903 0.000000 -0.000003 0.000000 -0.000000 0.000000 -94.458798 3.854582 -14.356144 85.382426 0.405515 0.991102 -0.184874 -0.466227 4.119793 -1.889804 0.000012 0.000002 0.000000 0.000001 -0.000000 
-27.083961 53.493469 22.685553 9.542888 -1.421315 0.952108 25.759022 2.010348 3.774039 1.527257 0.331124 -0.503620 1.535299 0.263128 -0.533416 1.936119 -0.260167 2.152481 -20.849274 9.938071 -20.099850 -0.000001 0.000001 -0.000000 0.524343 -10.439813 -12.137850 -12.565730 26.723230 -34.962434 0.001859 -92.533900 0.001800 4.668879 -7.896797 41.995456 1.766217 4.913085 -29.798309 1.969543 4.825319 -44.387750 0.010816 0.386608 -3.205185 -0.000001 -0.000001 0.000003 18.222200 22.735022 -5.208400 -0.809103 8.490821 9.364886 0.290183 -0.346244 -0.385766 0.000000 0.000002 0.000001 -0.299414 -3.680943 -4.520536 -30.460154 60.296206 51.460199 -0.000039 111.324256 0.000038 54.691790 -37.348188 5.107724 1.640785 -3.850506 -6.116292 8.686939 -18.688424 -1.178184 17.549259 -52.854551 -7.153303 -0.000001 -0.000000 0.000001 2.342397 -5.815894 30.995388 3.892997 -6.243429 63.858806 0.104544 1.203658 -9.927850 0.000001 -0.000001 0.000001 -93.755104 -4.592294 10.701762 79.569511 -3.601613 0.982121 4.846689 0.442558 -7.959551 -3.704014 -0.000001 -0.000005 -0.000001 -0.000000 -0.000000 -94.460628 3.868772 -14.381308 85.394665 0.409174 0.991369 -0.191337 -0.466823 4.121695 -1.883179 0.000008 0.000001 -0.000000 -0.000000 -0.000000 
-27.081612 53.491661 22.685659 9.543401 -1.409506 0.963435 25.759058 1.999594 3.779537 1.526295 0.327946 -0.506185 1.534256 0.259781 -0.535668 1.915177 -0.253249 2.151626 -20.853626 9.988645 -20.137240 -0.000002 0.000001 0.000001 0.525486 -10.434669 -12.126988 -12.541336 26.710408 -34.972092 0.002484 -92.526619 0.002599 4.656108 -7.900415 42.015526 1.766202 4.913069 -29.798305 1.969550 4.825315 -44.387770 0.010815 0.386609 -3.205189 -0.000002 0.000001 -0.000001 18.222195 22.735021 -5.208398 -0.809103 8.490816 9.364886 0.290182 -0.346244 -0.385767 -0.000001 -0.000001 0.000000 -0.297362 -3.682728 -4.499578 -30.460007 60.310659 51.439982 0.000049 111.319700 -0.000044 54.688416 -37.346183 5.122406 1.640785 -3.850508 -6.116291 8.686936 -18.688422 -1.178183 17.549256 -52.854548 -7.153306 -0.000000 -0.000004 -0.000000 2.342397 -5.815897 30.995388 3.892997 -6.243430 63.858806 0.104546 1.203658 -9.927849 -0.000001 0.000000 -0.000000 -93.753629 -4.579075 10.680746 79.565406 -3.597409 0.981752 4.841341 0.443388 -7.944532 -3.698652 0.000001 -0.000001 0.000000 0.000000 -0.000000 -94.473694 3.883821 -14.394817 85.398183 0.430359 0.987412 -0.167822 -0.466404 4.120909 -1.897975 -0.000026 0.000000 0.000000 -0.000000 0.000000 
-27.079668 53.490540 22.685154 9.539249 -1.401400 0.971196 25.764392 1.993823 3.783980 1.530084 0.326077 -0.507069 1.537999 0.257788 -0.536357 1.896948 -0.248498 2.179726 -20.851529 10.084067 -20.242184 0.000002 -0.000000 0.000000 0.526123 -10.426707 -12.118055 -12.521991 26.683536 -34.974759 -0.001384 -92.518095 -0.001290 4.637211 -7.901891 42.042154 1.766211 4.913065 -29.798319 1.969528 4.825308 -44.387747 0.010813 0.386611 -3.205188 0.000003 -0.000000 0.000002 18.222195 22.735019 -5.208401 -0.809103 8.490820 9.364887 0.290182 -0.346242 -0.385767 0.000000 0.000001 0.000000 -0.296307 -3.684463 -4.488432 -30.490907 60.306588 51.467781 -0.000031 111.319482 0.000041 54.714904 -37.328951 5.153665 1.640785 -3.850513 -6.116293 8.686937 -18.688424 -1.178184 17.549258 -52.854548 -7.153304 -0.000001 0.000001 -0.000000 2.342397 -5.815900 30.995388 3.892997 -6.243428 63.858813 0.104544 1.203658 -9.927852 -0.000004 -0.000000 -0.000000 -93.748629 -4.572990 10.665935 79.560796 -3.599737 0.983287 4.843066 0.443249 -7.947136 -3.697793 -0.000000 0.000003 -0.000000 -0.000001 -0.000000 -94.479732 3.893432 -14.406657 85.399501 0.450293 0.985116 -0.146336 -0.466138 4.120560 -1.917446 0.000009 0.000002 -0.000000 0.000001 0.000000 
-27.078106 53.491089 22.682707 9.528173 -1.396878 0.977062 25.772827 1.991884 3.785717 1.537175 0.325492 -0.508448 1.545066 0.256974 -0.537655 1.891192 -0.247215 2.235358 -20.842800 10.213312 -20.403624 -0.000003 0.000000 -0.000001 0.525811 -10.417190 -12.114712 -12.513905 26.645859 -34.966610 0.001497 -92.509981 0.001523 4.619787 -7.895893 42.065670 1.766210 4.913075 -29.798305 1.969531 4.825313 -44.387740 0.010815 0.386610 -3.205187 0.000000 0.000000 0.000001 18.222197 22.735021 -5.208401 -0.809105 8.490822 9.364887 0.290185 -0.346245 -0.385766 -0.000001 -0.000001 0.000000 -0.296490 -3.687747 -4.487985 -30.516483 60.301596 51.483179 0.000002 111.317200 -0.000011 54.721457 -37.321745 5.163247 1.640786 -3.850511 -6.116293 8.686937 -18.688422 -1.178185 17.549259 -52.854555 -7.153306 -0.000002 -0.000004 -0.000001 2.342396 -5.815895 30.995388 3.892997 -6.243429 63.858806 0.104544 1.203658 -9.927852 -0.000001 -0.000000 0.000000 -93.735563 -4.565961 10.656092 79.556274 -3.599474 0.984203 4.841787 0.443564 -7.943665 -3.693842 0.000001 0.000003 -0.000001 0.000000 0.000000 -94.472567 3.897675 -14.417358 85.400130 0.455934 0.984602 -0.140893 -0.466166 4.121676 -1.925663 -0.000003 -0.000000 0.000000 -0.000001 -0.000000 
